<svg width="1305" height="624" viewBox="0 0 1305 624" fill="none" xmlns="http://www.w3.org/2000/svg">
<rect y="74.2221" width="204" height="59" rx="29.5" fill="black"/>
<path d="M76.6602 103.601H83.457V112.484C82.5586 112.781 81.625 113.019 80.6562 113.199C79.6875 113.371 78.5898 113.456 77.3633 113.456C75.6602 113.456 74.2148 113.121 73.0273 112.449C71.8398 111.777 70.9375 110.785 70.3203 109.472C69.7031 108.16 69.3945 106.546 69.3945 104.632C69.3945 102.835 69.7383 101.281 70.4258 99.9682C71.1211 98.6557 72.1328 97.6401 73.4609 96.9213C74.7969 96.2026 76.4258 95.8432 78.3477 95.8432C79.2539 95.8432 80.1484 95.9409 81.0312 96.1362C81.9141 96.3315 82.7148 96.5854 83.4336 96.8979L82.2266 99.8041C81.7031 99.5385 81.1055 99.3159 80.4336 99.1362C79.7617 98.9565 79.0586 98.8666 78.3242 98.8666C77.2695 98.8666 76.3516 99.1088 75.5703 99.5932C74.7969 100.078 74.1953 100.757 73.7656 101.632C73.3438 102.499 73.1328 103.523 73.1328 104.703C73.1328 105.82 73.2852 106.812 73.5898 107.679C73.8945 108.539 74.375 109.214 75.0312 109.706C75.6875 110.191 76.543 110.433 77.5977 110.433C78.1133 110.433 78.5469 110.41 78.8984 110.363C79.2578 110.308 79.5938 110.253 79.9062 110.199V106.624H76.6602V103.601ZM93.0195 96.0893C95.2305 96.0893 96.8438 96.5659 97.8594 97.519C98.875 98.4643 99.3828 99.769 99.3828 101.433C99.3828 102.183 99.2695 102.902 99.043 103.589C98.8164 104.269 98.4453 104.874 97.9297 105.406C97.4219 105.937 96.7422 106.359 95.8906 106.671C95.0391 106.976 93.9883 107.128 92.7383 107.128H91.1797V113.222H87.5469V96.0893H93.0195ZM92.832 99.0659H91.1797V104.152H92.375C93.0547 104.152 93.6445 104.062 94.1445 103.882C94.6445 103.703 95.0312 103.421 95.3047 103.039C95.5781 102.656 95.7148 102.164 95.7148 101.562C95.7148 100.718 95.4805 100.093 95.0117 99.687C94.543 99.2729 93.8164 99.0659 92.832 99.0659ZM109.227 113.222H105.594V99.1127H100.941V96.0893H113.879V99.1127H109.227V113.222ZM115.074 108.253V105.324H121.367V108.253H115.074ZM134.363 99.9213C134.363 100.71 134.199 101.394 133.871 101.972C133.543 102.55 133.098 103.023 132.535 103.39C131.98 103.757 131.355 104.027 130.66 104.199V104.269C132.035 104.441 133.078 104.863 133.789 105.535C134.508 106.206 134.867 107.105 134.867 108.23C134.867 109.23 134.621 110.124 134.129 110.914C133.645 111.703 132.895 112.324 131.879 112.777C130.863 113.23 129.555 113.456 127.953 113.456C127.008 113.456 126.125 113.378 125.305 113.222C124.492 113.074 123.727 112.843 123.008 112.531V109.449C123.742 109.824 124.512 110.109 125.316 110.304C126.121 110.492 126.871 110.585 127.566 110.585C128.863 110.585 129.77 110.363 130.285 109.917C130.809 109.464 131.07 108.831 131.07 108.019C131.07 107.542 130.949 107.14 130.707 106.812C130.465 106.484 130.043 106.234 129.441 106.062C128.848 105.89 128.016 105.804 126.945 105.804H125.645V103.027H126.969C128.023 103.027 128.824 102.929 129.371 102.734C129.926 102.531 130.301 102.257 130.496 101.914C130.699 101.562 130.801 101.164 130.801 100.718C130.801 100.109 130.613 99.6323 130.238 99.2885C129.863 98.9448 129.238 98.7729 128.363 98.7729C127.816 98.7729 127.316 98.8432 126.863 98.9838C126.418 99.1166 126.016 99.2807 125.656 99.476C125.297 99.6635 124.98 99.8471 124.707 100.027L123.031 97.5307C123.703 97.0463 124.488 96.644 125.387 96.3237C126.293 96.0034 127.371 95.8432 128.621 95.8432C130.387 95.8432 131.785 96.1987 132.816 96.9096C133.848 97.6205 134.363 98.6245 134.363 99.9213Z" fill="#F0F4FF"/>
<path d="M10.272 48.688C9.792 48.496 9.296 48.288 8.784 48.064C8.304 47.84 7.84 47.504 7.392 47.056C6.976 46.64 6.608 46.048 6.288 45.28C5.968 44.352 5.744 43.44 5.616 42.544C5.52 41.648 5.488 40.608 5.52 39.424C5.52 37.76 5.632 36.32 5.856 35.104C6.112 33.856 6.496 32.592 7.008 31.312C7.072 31.216 7.184 30.944 7.344 30.496C7.536 30.016 7.744 29.504 7.968 28.96C8.224 28.416 8.416 28 8.544 27.712C8.8 27.168 9.184 26.448 9.696 25.552C10.24 24.624 10.816 23.728 11.424 22.864C12.352 21.488 13.12 20.4 13.728 19.6C14.336 18.8 14.912 18.128 15.456 17.584C16 17.04 16.608 16.528 17.28 16.048C17.984 15.536 18.88 14.912 19.968 14.176C20.672 13.664 21.44 13.392 22.272 13.36C23.136 13.328 23.936 13.52 24.672 13.936C25.408 14.32 25.952 14.896 26.304 15.664C26.656 16.336 26.832 17.152 26.832 18.112C26.832 19.04 26.688 20.032 26.4 21.088C26.112 22.112 25.712 23.088 25.2 24.016C24.688 24.944 24.096 25.712 23.424 26.32C23.008 26.704 22.624 26.848 22.272 26.752C21.952 26.656 21.568 26.4 21.12 25.984C20.832 25.44 20.672 25.12 20.64 25.024C20.64 24.928 20.704 24.864 20.832 24.832C21.024 24.608 21.28 24.224 21.6 23.68C21.92 23.136 22.24 22.56 22.56 21.952C22.88 21.312 23.104 20.8 23.232 20.416C23.488 19.072 23.664 18.128 23.76 17.584C23.856 17.008 23.76 16.576 23.472 16.288C23.344 16.16 23.152 16.112 22.896 16.144C22.672 16.176 22.288 16.336 21.744 16.624C21.008 16.944 20.048 17.664 18.864 18.784C17.68 19.872 16.592 21.088 15.6 22.432C14.32 24.128 13.248 25.632 12.384 26.944C11.52 28.256 10.864 29.6 10.416 30.976C10.352 31.104 10.24 31.344 10.08 31.696C9.952 32.048 9.888 32.224 9.888 32.224C9.92 32.352 9.872 32.672 9.744 33.184C9.616 33.664 9.472 34.08 9.312 34.432C8.96 35.904 8.752 37.44 8.688 39.04C8.624 40.608 8.704 42 8.928 43.216C9.184 44.432 9.552 45.28 10.032 45.76C10.448 46.048 11.008 46.144 11.712 46.048C12.448 45.952 13.28 45.728 14.208 45.376C15.136 45.024 16.08 44.64 17.04 44.224C17.808 43.904 18.512 43.552 19.152 43.168C19.792 42.784 20.272 42.448 20.592 42.16C20.848 41.968 21.168 41.776 21.552 41.584C21.968 41.36 22.32 41.248 22.608 41.248C23.056 41.088 23.312 41.024 23.376 41.056C23.44 41.088 23.472 41.232 23.472 41.488C23.472 41.936 23.216 42.432 22.704 42.976C22.224 43.52 21.6 44.016 20.832 44.464C20.576 44.72 20.24 44.992 19.824 45.28C19.408 45.568 18.976 45.792 18.528 45.952C17.856 46.464 17.024 46.96 16.032 47.44C15.04 47.92 14.032 48.288 13.008 48.544C12.016 48.8 11.104 48.848 10.272 48.688ZM30.7526 45.28C30.3366 45.28 30.0006 45.2 29.7446 45.04C29.5206 44.88 29.2326 44.656 28.8806 44.368C28.2726 43.728 27.8406 43.12 27.5846 42.544C27.3286 41.936 27.2486 41.36 27.3446 40.816C27.4406 40.56 27.4726 40.32 27.4406 40.096C27.4406 39.84 27.4406 39.712 27.4406 39.712C27.2806 39.552 27.2326 39.456 27.2966 39.424C27.3606 39.36 27.4246 39.264 27.4886 39.136C27.6806 39.136 27.7446 38.96 27.6806 38.608C27.6166 38.352 27.7446 37.792 28.0646 36.928C28.3846 36.064 28.7846 35.248 29.2646 34.48C29.4566 34.16 29.7446 33.744 30.1286 33.232C30.5126 32.688 30.9286 32.16 31.3766 31.648C31.8566 31.104 32.2886 30.672 32.6726 30.352C33.4726 29.68 34.1766 29.184 34.7846 28.864C35.3926 28.544 36.0486 28.304 36.7526 28.144C37.4566 27.984 37.9366 27.904 38.1926 27.904C38.4806 27.904 38.8646 28.16 39.3446 28.672C40.0806 28.992 40.6086 29.376 40.9286 29.824C41.2806 30.272 41.5046 30.928 41.6006 31.792C41.6966 32.752 41.6166 33.856 41.3606 35.104C41.1366 36.32 40.3846 37.84 39.1046 39.664C38.3046 40.816 37.5686 41.68 36.8966 42.256C36.2246 42.8 35.4246 43.344 34.4966 43.888C33.8246 44.336 33.2166 44.672 32.6726 44.896C32.1286 45.088 31.4886 45.216 30.7526 45.28ZM35.3606 40.192C36.1286 39.328 36.7366 38.512 37.1846 37.744C37.6646 36.976 38.1126 36 38.5286 34.816C38.6566 34.464 38.7366 34.032 38.7686 33.52C38.8006 32.976 38.7846 32.48 38.7206 32.032C38.6886 31.552 38.5766 31.28 38.3846 31.216C38.0006 30.992 37.5366 30.928 36.9926 31.024C36.4486 31.088 35.8566 31.392 35.2166 31.936C34.2246 32.768 33.3606 33.808 32.6246 35.056C31.8886 36.272 31.1686 37.664 30.4646 39.232C29.9846 40.384 29.8726 41.312 30.1286 42.016C30.4166 42.688 31.0086 42.928 31.9046 42.736C32.8326 42.512 33.9846 41.664 35.3606 40.192ZM66.0105 43.984C65.8505 43.92 65.6105 43.76 65.2905 43.504C64.9705 43.248 64.6985 42.816 64.4745 42.208C64.2505 41.568 64.1385 40.688 64.1385 39.568C64.1705 38.608 64.1865 37.856 64.1865 37.312C64.2185 36.768 64.1065 36.496 63.8505 36.496C63.5945 36.496 63.0985 36.752 62.3625 37.264C61.6585 37.744 60.8425 38.4 59.9145 39.232C58.9865 40.064 58.0425 40.992 57.0825 42.016C56.7625 42.368 56.4425 42.704 56.1225 43.024C55.8345 43.312 55.5465 43.504 55.2585 43.6C54.9705 43.664 54.6345 43.552 54.2505 43.264L53.7225 42.832C53.5625 42.672 53.4665 42.512 53.4345 42.352C53.4025 42.16 53.4185 41.952 53.4825 41.728L54.5865 38.56C55.0985 37.408 55.4505 36.576 55.6425 36.064C55.8345 35.52 55.9305 35.184 55.9305 35.056C55.9305 34.896 55.8825 34.832 55.7865 34.864C55.5305 34.896 55.1465 35.056 54.6345 35.344C54.1225 35.6 53.7865 35.856 53.6265 36.112C53.4985 36.112 53.3065 36.256 53.0505 36.544C52.7945 36.832 52.4745 37.104 52.0905 37.36C51.8665 37.744 51.4185 38.24 50.7465 38.848C50.1065 39.456 49.4665 40.08 48.8265 40.72C48.4105 41.072 47.9945 41.504 47.5785 42.016C47.1945 42.528 46.8585 42.976 46.5705 43.36C46.3145 43.744 46.1385 43.936 46.0425 43.936C45.6265 43.936 45.2425 43.824 44.8905 43.6C44.5705 43.376 44.3305 43.008 44.1705 42.496C43.9145 41.952 43.9145 41.2 44.1705 40.24C44.4265 39.248 44.7145 37.968 45.0345 36.4C45.1625 35.92 45.2425 35.568 45.2745 35.344C45.3065 35.12 45.3545 34.896 45.4185 34.672C45.5145 34.416 45.6585 34.032 45.8505 33.52C46.0745 33.008 46.4105 32.24 46.8585 31.216C47.0825 30.608 47.2105 30.16 47.2425 29.872C47.3065 29.552 47.3385 29.328 47.3385 29.2C47.3385 28.88 47.4185 28.608 47.5785 28.384C47.7705 28.16 47.9945 28 48.2505 27.904C48.5065 27.808 48.7465 27.792 48.9705 27.856C49.3225 27.92 49.6265 28.096 49.8825 28.384C50.1705 28.672 50.3305 29.072 50.3625 29.584C50.3945 29.968 50.3625 30.32 50.2665 30.64C50.1705 30.928 50.0745 31.2 49.9785 31.456L49.4505 32.752C49.2905 33.104 49.0825 33.616 48.8265 34.288C48.5705 34.96 48.3465 35.584 48.1545 36.16C47.9625 36.704 47.8665 37.024 47.8665 37.12C47.8985 37.216 48.0105 37.2 48.2025 37.072C48.3945 36.912 48.6345 36.704 48.9225 36.448C49.2425 36.16 49.5625 35.888 49.8825 35.632C50.5545 34.992 51.3065 34.384 52.1385 33.808C53.0025 33.2 53.8185 32.688 54.5865 32.272C55.3545 31.856 55.9465 31.584 56.3625 31.456C56.9065 31.456 57.2745 31.552 57.4665 31.744C57.6905 31.936 58.0585 32.288 58.5705 32.8C58.7945 33.024 58.9225 33.312 58.9545 33.664C58.9865 34.016 58.9705 34.352 58.9065 34.672C58.8745 34.8 58.7785 35.12 58.6185 35.632C58.4585 36.112 58.2985 36.576 58.1385 37.024C58.0105 37.472 57.9465 37.696 57.9465 37.696C57.9465 37.696 58.1225 37.536 58.4745 37.216C58.8585 36.896 59.2745 36.56 59.7225 36.208C60.1705 35.824 60.5065 35.536 60.7305 35.344C61.9785 34.384 63.0665 33.776 63.9945 33.52C64.9225 33.264 65.6745 33.6 66.2505 34.528C66.6345 34.88 66.8265 35.264 66.8265 35.68C66.8585 36.096 66.8745 36.816 66.8745 37.84C66.9065 38.256 66.9385 38.752 66.9705 39.328C67.0025 39.904 67.0345 40.432 67.0665 40.912C67.1305 41.36 67.1945 41.632 67.2585 41.728C67.3545 41.856 67.5305 41.968 67.7865 42.064C68.0745 42.128 68.4425 42.192 68.8905 42.256C69.3705 42.32 69.6585 42.528 69.7545 42.88C69.8505 43.232 69.6425 43.568 69.1305 43.888C68.6505 44.176 68.1225 44.304 67.5465 44.272C66.9705 44.24 66.4585 44.144 66.0105 43.984ZM71.4139 54.4C71.0299 54.656 70.6299 54.64 70.2139 54.352C69.8299 54.064 69.5419 53.632 69.3499 53.056C69.1579 52.48 69.1739 51.872 69.3979 51.232C69.4619 51.04 69.5579 50.72 69.6859 50.272C69.8139 49.856 69.8939 49.488 69.9259 49.168C69.9579 48.944 70.0539 48.56 70.2139 48.016C70.3739 47.504 70.5499 46.992 70.7419 46.48C70.9659 45.968 71.1419 45.6 71.2699 45.376C71.4619 45.056 71.5899 44.688 71.6539 44.272C71.7499 43.856 71.7979 43.536 71.7979 43.312C71.8619 43.088 71.9419 42.832 72.0379 42.544C72.1659 42.256 72.2939 42.032 72.4219 41.872C72.4859 41.616 72.5819 41.344 72.7099 41.056C72.8379 40.736 72.9819 40.464 73.1419 40.24C73.2059 40.016 73.2539 39.744 73.2859 39.424C73.3499 39.104 73.4459 38.928 73.5739 38.896C73.6059 38.768 73.6219 38.64 73.6219 38.512C73.6539 38.384 73.7179 38.208 73.8139 37.984C73.8779 37.632 74.0219 37.12 74.2459 36.448C74.4699 35.776 74.7419 35.04 75.0619 34.24C75.4139 33.312 75.5739 32.432 75.5419 31.6C75.5419 30.736 75.3019 30.208 74.8219 30.016C74.5659 29.888 74.4059 29.712 74.3419 29.488C74.2779 29.232 74.3099 28.976 74.4379 28.72C74.5659 28.464 74.7579 28.288 75.0139 28.192C75.3019 28.064 75.6059 28.016 75.9259 28.048C76.2779 28.08 76.5819 28.144 76.8379 28.24C77.0939 28.304 77.2059 28.368 77.1739 28.432C77.1739 28.592 77.2539 28.688 77.4139 28.72C77.4779 28.624 77.6059 28.736 77.7979 29.056C78.0219 29.344 78.2299 29.68 78.4219 30.064C78.6139 30.448 78.7099 30.72 78.7099 30.88C78.6459 31.008 78.6139 31.088 78.6139 31.12C78.6139 31.12 78.6779 31.12 78.8059 31.12C78.8059 31.12 78.9819 31.04 79.3339 30.88C79.6859 30.688 80.0539 30.48 80.4379 30.256C80.8539 30 81.1259 29.808 81.2539 29.68C81.2539 29.68 81.3339 29.648 81.4939 29.584C81.6859 29.488 81.8459 29.376 81.9739 29.248C82.6139 28.992 83.3019 28.944 84.0379 29.104C84.8059 29.264 85.4139 29.552 85.8619 29.968C86.5019 30.768 86.8219 31.536 86.8219 32.272C86.8539 33.008 86.6459 33.936 86.1979 35.056C86.1339 35.216 85.9899 35.488 85.7659 35.872C85.5739 36.224 85.3819 36.56 85.1899 36.88C84.9979 37.168 84.9019 37.312 84.9019 37.312C84.1659 38.464 83.3019 39.424 82.3099 40.192C81.3179 40.96 80.3099 41.632 79.2859 42.208C78.9659 42.432 78.6299 42.608 78.2779 42.736C77.9579 42.832 77.6699 42.896 77.4139 42.928C77.1579 42.928 76.9819 42.896 76.8859 42.832C76.5339 42.576 76.2139 42.032 75.9259 41.2C75.7659 41.616 75.6059 42.032 75.4459 42.448C75.3179 42.832 75.2379 43.088 75.2059 43.216C75.1739 43.44 75.1419 43.632 75.1099 43.792C75.0779 43.92 74.9979 44.032 74.8699 44.128C74.8699 44.128 74.8539 44.192 74.8219 44.32C74.7899 44.448 74.6779 44.64 74.4859 44.896C74.1659 45.824 73.8779 46.624 73.6219 47.296C73.3659 48 73.1579 48.592 72.9979 49.072C72.8379 49.584 72.7099 50.032 72.6139 50.416C72.5499 51.28 72.3739 52.128 72.0859 52.96C71.7979 53.824 71.5739 54.304 71.4139 54.4ZM77.1259 40.72C77.2539 40.656 77.5259 40.48 77.9419 40.192C78.3899 39.872 78.8859 39.504 79.4299 39.088C79.9739 38.64 80.4699 38.224 80.9179 37.84C81.3979 37.456 81.7179 37.168 81.8779 36.976C82.1339 36.688 82.3739 36.384 82.5979 36.064C82.8219 35.712 82.9979 35.328 83.1259 34.912C83.2219 34.656 83.3339 34.368 83.4619 34.048C83.5899 33.728 83.7019 33.424 83.7979 33.136C83.9259 32.88 83.9739 32.624 83.9419 32.368C83.9419 32.08 83.8459 31.84 83.6539 31.648C83.5259 31.616 83.1419 31.712 82.5019 31.936C81.8619 32.128 81.1579 32.464 80.3899 32.944C79.6219 33.392 78.9499 33.984 78.3739 34.72C77.7019 35.584 77.2059 36.48 76.8859 37.408C76.5979 38.336 76.4699 39.12 76.5019 39.76C76.5659 40.4 76.7739 40.72 77.1259 40.72ZM93.4425 44.608C93.1865 44.672 92.8505 44.704 92.4345 44.704C92.0185 44.672 91.6505 44.624 91.3305 44.56C91.0425 44.464 90.8985 44.368 90.8985 44.272C90.8985 44.112 90.8185 44.032 90.6585 44.032C90.6585 44.032 90.5785 43.968 90.4185 43.84C90.2905 43.712 90.0825 43.584 89.7945 43.456C89.5065 43.008 89.3625 42.528 89.3625 42.016C89.3625 41.472 89.5065 40.624 89.7945 39.472C89.8905 38.672 90.1945 37.744 90.7065 36.688C91.2505 35.6 91.9065 34.496 92.6745 33.376C93.4425 32.256 94.2425 31.248 95.0745 30.352C95.9385 29.456 96.7225 28.8 97.4265 28.384C97.8745 27.936 98.4185 27.696 99.0585 27.664C99.6985 27.632 100.307 27.776 100.883 28.096C101.203 28.256 101.523 28.512 101.843 28.864C102.163 29.216 102.467 29.6 102.755 30.016C103.043 30.432 103.283 30.848 103.475 31.264C103.571 31.616 103.619 31.936 103.619 32.224C103.651 32.48 103.651 32.8 103.619 33.184C103.619 33.568 103.571 34.144 103.475 34.912C103.315 35.488 103.171 36.192 103.043 37.024C102.947 37.856 102.899 38.576 102.899 39.184C102.835 39.792 102.899 40.224 103.091 40.48C103.315 40.736 103.635 40.752 104.051 40.528C104.435 40.336 104.803 40.256 105.155 40.288C105.507 40.288 105.779 40.384 105.971 40.576C106.195 40.768 106.307 41.056 106.307 41.44C106.307 41.824 106.115 42.224 105.731 42.64C105.379 43.024 104.931 43.36 104.387 43.648C103.875 43.904 103.379 44.032 102.899 44.032C102.547 44.032 102.211 43.824 101.891 43.408C101.571 42.96 101.283 42.432 101.027 41.824C100.803 41.184 100.595 40.576 100.403 40L100.115 38.896L98.0505 40.864C97.6345 41.312 97.2185 41.728 96.8025 42.112C96.4185 42.464 96.1785 42.72 96.0825 42.88C95.9225 43.168 95.6185 43.456 95.1705 43.744C94.7545 44.032 94.1785 44.32 93.4425 44.608ZM93.5865 41.776C94.1305 41.456 94.7545 40.992 95.4585 40.384C96.1625 39.744 96.8505 39.056 97.5225 38.32C98.1945 37.552 98.7545 36.848 99.2025 36.208C99.7465 35.472 100.163 34.784 100.451 34.144C100.739 33.504 100.947 32.896 101.075 32.32C100.947 31.968 100.739 31.6 100.451 31.216C100.163 30.8 99.9065 30.576 99.6825 30.544C98.9785 30.544 98.2265 30.992 97.4265 31.888C96.6585 32.752 95.9065 33.696 95.1705 34.72C95.0425 34.88 94.8665 35.136 94.6425 35.488C94.4185 35.84 94.1945 36.176 93.9705 36.496C93.7785 36.784 93.6505 36.976 93.5865 37.072C93.4905 37.2 93.2985 37.568 93.0105 38.176C92.7545 38.752 92.4985 39.344 92.2425 39.952C91.9865 40.528 91.8585 40.912 91.8585 41.104C91.8585 41.296 91.8745 41.504 91.9065 41.728C91.9705 41.952 92.1305 42.096 92.3865 42.16C92.6425 42.224 93.0425 42.096 93.5865 41.776ZM111.028 44.896C110.868 45.216 110.628 45.312 110.308 45.184C110.02 45.056 109.78 44.928 109.588 44.8C109.364 44.8 109.172 44.736 109.012 44.608C108.852 44.48 108.74 44.288 108.676 44.032C108.612 43.84 108.596 43.616 108.628 43.36C108.66 43.072 108.724 42.752 108.82 42.4C108.948 42.016 109.076 41.6 109.204 41.152C109.46 40.096 109.636 39.328 109.732 38.848C109.828 38.368 109.924 37.952 110.02 37.6C110.116 37.248 110.244 36.736 110.404 36.064C110.66 35.424 110.868 34.8 111.028 34.192C111.188 33.584 111.428 32.976 111.748 32.368C111.972 31.536 112.244 30.752 112.564 30.016C112.916 29.248 113.252 28.608 113.572 28.096C113.636 28 113.748 27.872 113.908 27.712C114.1 27.552 114.26 27.472 114.388 27.472C114.644 27.216 114.868 27.12 115.06 27.184C115.284 27.216 115.556 27.36 115.876 27.616C116.26 28.032 116.404 28.512 116.308 29.056C116.244 29.6 115.86 30.4 115.156 31.456C114.772 32.448 114.42 33.312 114.1 34.048C113.78 34.752 113.556 35.424 113.428 36.064C113.78 35.552 114.164 35.088 114.58 34.672C115.028 34.224 115.396 33.856 115.684 33.568C116.388 32.864 116.964 32.352 117.412 32.032C117.892 31.712 118.452 31.344 119.092 30.928C119.476 30.672 119.844 30.448 120.196 30.256C120.548 30.032 120.932 29.872 121.348 29.776C121.796 29.68 122.276 29.68 122.788 29.776C123.108 29.744 123.364 29.84 123.556 30.064C123.78 30.288 123.956 30.592 124.084 30.976C124.212 31.36 124.292 31.808 124.324 32.32C123.588 32.16 122.932 32.192 122.356 32.416C121.78 32.608 121.284 32.848 120.868 33.136C120.484 33.424 120.18 33.648 119.956 33.808C119.476 34.128 118.868 34.56 118.132 35.104C117.396 35.616 116.66 36.24 115.924 36.976C115.348 37.616 114.852 38.16 114.436 38.608C114.052 39.056 113.732 39.456 113.476 39.808C113.252 40.16 113.076 40.528 112.948 40.912C112.628 41.648 112.292 42.448 111.94 43.312C111.588 44.176 111.284 44.704 111.028 44.896ZM129.285 44.848C128.037 44.336 127.221 43.632 126.837 42.736C126.485 41.808 126.421 40.384 126.645 38.464C126.709 37.472 126.741 36.816 126.741 36.496C126.741 36.176 126.565 35.856 126.213 35.536C126.117 35.408 125.941 35.232 125.685 35.008C125.461 34.784 125.365 34.592 125.397 34.432C125.365 34.208 125.381 33.968 125.445 33.712C125.509 33.424 125.605 33.28 125.733 33.28C125.861 33.28 125.989 33.248 126.117 33.184C126.277 33.12 126.421 33.12 126.549 33.184C126.677 33.184 126.821 33.2 126.981 33.232C127.141 33.264 127.221 33.344 127.221 33.472C127.349 33.696 127.557 33.728 127.845 33.568C128.133 33.376 128.437 32.96 128.757 32.32C129.077 31.808 129.493 31.296 130.005 30.784C130.549 30.272 131.077 29.808 131.589 29.392C132.133 28.944 132.581 28.624 132.933 28.432C133.093 28.368 133.333 28.288 133.653 28.192C133.973 28.096 134.309 28.016 134.661 27.952C135.045 27.888 135.365 27.872 135.621 27.904C136.197 27.936 136.677 28.096 137.061 28.384C137.477 28.672 137.861 29.008 138.213 29.392C138.629 29.68 138.885 30.064 138.981 30.544C139.109 31.024 139.141 31.536 139.077 32.08C139.013 32.624 138.869 33.12 138.645 33.568C138.549 33.888 138.277 34.272 137.829 34.72C137.381 35.168 136.869 35.6 136.293 36.016C135.717 36.432 135.189 36.736 134.709 36.928C134.293 37.024 133.749 37.104 133.077 37.168C132.437 37.232 131.829 37.264 131.253 37.264C130.709 37.232 130.341 37.168 130.149 37.072C129.925 36.944 129.749 37.12 129.621 37.6C129.493 38.08 129.397 38.768 129.333 39.664C129.269 40.368 129.269 40.88 129.333 41.2C129.397 41.52 129.461 41.744 129.525 41.872C129.749 42.096 130.053 42.384 130.437 42.736C130.853 43.056 131.429 43.104 132.165 42.88C132.773 42.72 133.365 42.304 133.941 41.632C134.549 40.96 135.109 40.416 135.621 40C135.749 39.776 135.957 39.648 136.245 39.616C136.565 39.552 136.901 39.568 137.253 39.664C137.605 39.888 137.749 40.16 137.685 40.48C137.653 40.768 137.493 41.216 137.205 41.824C137.109 42.048 136.885 42.336 136.533 42.688C136.213 43.008 135.845 43.344 135.429 43.696C135.045 44.016 134.693 44.272 134.373 44.464C133.413 44.976 132.517 45.248 131.685 45.28C130.853 45.28 130.053 45.136 129.285 44.848ZM132.117 35.104C132.821 34.944 133.381 34.832 133.797 34.768C134.213 34.704 134.613 34.528 134.997 34.24C135.381 33.92 135.861 33.328 136.437 32.464C136.565 32.112 136.597 31.76 136.533 31.408C136.501 31.056 136.421 30.816 136.293 30.688C136.005 30.368 135.653 30.272 135.237 30.4C134.853 30.496 134.485 30.672 134.133 30.928C133.909 31.024 133.573 31.264 133.125 31.648C132.709 32 132.293 32.416 131.877 32.896C131.461 33.344 131.125 33.76 130.869 34.144C130.613 34.528 130.549 34.752 130.677 34.816C130.613 34.944 130.789 35.024 131.205 35.056C131.653 35.088 131.957 35.104 132.117 35.104Z" fill="#A4AAB9"/>
<path d="M285.728 123.304C285.696 123.496 285.504 123.544 285.152 123.448C284.832 123.384 284.544 123.16 284.288 122.776C284.032 122.168 283.904 121.608 283.904 121.096C283.904 120.584 283.92 119.816 283.952 118.792C284.144 117.672 284.4 116.216 284.72 114.424C285.072 112.6 285.472 110.568 285.92 108.328C286.4 106.056 286.912 103.688 287.456 101.224C287.84 99.944 288.144 98.776 288.368 97.72C288.624 96.632 288.816 95.752 288.944 95.08C289.072 94.408 289.136 94.072 289.136 94.072C289.136 93.976 289.04 94.024 288.848 94.216C288.688 94.376 288.528 94.568 288.368 94.792C288.208 95.016 288.144 95.192 288.176 95.32C288.176 95.32 288.064 95.48 287.84 95.8C287.616 96.12 287.328 96.552 286.976 97.096C286.656 97.416 286.272 98.056 285.824 99.016C285.376 99.976 284.88 100.872 284.336 101.704C283.824 102.664 283.28 103.704 282.704 104.824C282.128 105.912 281.616 106.824 281.168 107.56C280.88 107.976 280.592 108.456 280.304 109C280.016 109.544 279.84 109.896 279.776 110.056C279.648 110.408 279.424 110.84 279.104 111.352C278.784 111.832 278.432 112.312 278.048 112.792C277.856 113.08 277.664 113.384 277.472 113.704C277.28 113.992 277.12 114.248 276.992 114.472C276.896 114.664 276.848 114.76 276.848 114.76C276.848 114.856 276.688 115.144 276.368 115.624C276.08 116.104 275.712 116.632 275.264 117.208C274.848 117.784 274.448 118.28 274.064 118.696C272.944 119.88 272.048 120.584 271.376 120.808C270.704 121 269.952 120.712 269.12 119.944C268.704 119.432 268.4 118.856 268.208 118.216C268.016 117.544 267.936 116.728 267.968 115.768C268 114.776 268.112 113.544 268.304 112.072C268.528 110.952 268.736 109.832 268.928 108.712C269.12 107.56 269.296 106.488 269.456 105.496C269.648 104.472 269.808 103.608 269.936 102.904C270.096 102.2 270.224 101.736 270.32 101.512C270.384 100.872 270.368 100.52 270.272 100.456C270.176 100.392 269.984 100.584 269.696 101.032C269.568 101.256 269.232 101.816 268.688 102.712C268.144 103.576 267.504 104.648 266.768 105.928C266.064 107.208 265.36 108.6 264.656 110.104C263.344 112.536 262.256 114.552 261.392 116.152C260.56 117.72 259.888 118.968 259.376 119.896C258.896 120.824 258.544 121.512 258.32 121.96C258.096 122.408 257.936 122.712 257.84 122.872C257.744 123.032 257.664 123.144 257.6 123.208C257.312 123.208 257.008 123.08 256.688 122.824C256.4 122.6 256.096 122.328 255.776 122.008C255.68 121.784 255.632 121.56 255.632 121.336C255.664 121.112 255.776 120.792 255.968 120.376C256.16 119.928 256.448 119.256 256.832 118.36C257.248 117.528 257.632 116.808 257.984 116.2C258.336 115.56 258.608 115.176 258.8 115.048C258.96 114.792 259.104 114.536 259.232 114.28C259.36 114.024 259.44 113.72 259.472 113.368C259.632 113.176 259.872 112.792 260.192 112.216C260.544 111.608 260.896 110.952 261.248 110.248C261.504 109.832 261.824 109.288 262.208 108.616C262.624 107.944 263.056 107.208 263.504 106.408C263.952 105.576 264.352 104.792 264.704 104.056C266.176 101.528 267.424 99.4 268.448 97.672C269.472 95.912 270.24 94.792 270.752 94.312C270.912 94.152 271.072 93.928 271.232 93.64C271.424 93.352 271.52 93.096 271.52 92.872C271.52 92.2 271.648 91.592 271.904 91.048C272.192 90.472 272.48 90.216 272.768 90.28C273.088 90.28 273.376 90.312 273.632 90.376C273.888 90.44 274.16 90.648 274.448 91C274.704 91.384 274.928 91.768 275.12 92.152C275.312 92.536 275.296 93.304 275.072 94.456C275.072 94.904 275.024 95.416 274.928 95.992C274.832 96.536 274.736 97.048 274.64 97.528C274.576 97.976 274.528 98.328 274.496 98.584C274.08 99.832 273.696 101.24 273.344 102.808C272.992 104.344 272.672 105.912 272.384 107.512C272.096 109.08 271.856 110.552 271.664 111.928C271.472 113.272 271.344 114.392 271.28 115.288C271.248 116.152 271.28 116.648 271.376 116.776C271.6 116.904 271.792 116.92 271.952 116.824C272.112 116.728 272.384 116.312 272.768 115.576C272.992 115.192 273.296 114.728 273.68 114.184C274.096 113.608 274.496 113.08 274.88 112.6C275.136 112.152 275.536 111.48 276.08 110.584C276.624 109.688 277.312 108.536 278.144 107.128C279.008 105.72 280.032 104.008 281.216 101.992C282.432 99.944 283.808 97.576 285.344 94.888C286.08 93.768 286.768 92.68 287.408 91.624C288.08 90.536 288.624 89.832 289.04 89.512C289.488 89.096 289.952 89 290.432 89.224C290.912 89.416 291.328 89.832 291.68 90.472C292.064 91.112 292.272 91.912 292.304 92.872C292.336 93.32 292.272 94.04 292.112 95.032C291.984 96.024 291.776 97.16 291.488 98.44C291.2 99.688 290.832 100.984 290.384 102.328C290.288 102.872 290.128 103.56 289.904 104.392C289.712 105.192 289.488 106.024 289.232 106.888C288.976 107.752 288.72 108.568 288.464 109.336C288.304 110.392 288.112 111.432 287.888 112.456C287.696 113.48 287.632 114.168 287.696 114.52C287.408 115.032 287.216 115.768 287.12 116.728C287.024 117.688 286.976 118.68 286.976 119.704C286.848 120.952 286.752 121.832 286.688 122.344C286.624 122.856 286.512 123.096 286.352 123.064C285.936 122.936 285.728 123.016 285.728 123.304ZM296.659 120.28C296.243 120.28 295.907 120.2 295.651 120.04C295.427 119.88 295.139 119.656 294.787 119.368C294.179 118.728 293.747 118.12 293.491 117.544C293.235 116.936 293.155 116.36 293.251 115.816C293.347 115.56 293.379 115.32 293.347 115.096C293.347 114.84 293.347 114.712 293.347 114.712C293.187 114.552 293.139 114.456 293.203 114.424C293.267 114.36 293.331 114.264 293.395 114.136C293.587 114.136 293.651 113.96 293.587 113.608C293.523 113.352 293.651 112.792 293.971 111.928C294.291 111.064 294.691 110.248 295.171 109.48C295.363 109.16 295.651 108.744 296.035 108.232C296.419 107.688 296.835 107.16 297.283 106.648C297.763 106.104 298.195 105.672 298.579 105.352C299.379 104.68 300.083 104.184 300.691 103.864C301.299 103.544 301.955 103.304 302.659 103.144C303.363 102.984 303.843 102.904 304.099 102.904C304.387 102.904 304.771 103.16 305.251 103.672C305.987 103.992 306.515 104.376 306.835 104.824C307.187 105.272 307.411 105.928 307.507 106.792C307.603 107.752 307.523 108.856 307.267 110.104C307.043 111.32 306.291 112.84 305.011 114.664C304.211 115.816 303.475 116.68 302.803 117.256C302.131 117.8 301.331 118.344 300.403 118.888C299.731 119.336 299.123 119.672 298.579 119.896C298.035 120.088 297.395 120.216 296.659 120.28ZM301.267 115.192C302.035 114.328 302.643 113.512 303.091 112.744C303.571 111.976 304.019 111 304.435 109.816C304.563 109.464 304.643 109.032 304.675 108.52C304.707 107.976 304.691 107.48 304.627 107.032C304.595 106.552 304.483 106.28 304.291 106.216C303.907 105.992 303.443 105.928 302.899 106.024C302.355 106.088 301.763 106.392 301.123 106.936C300.131 107.768 299.267 108.808 298.531 110.056C297.795 111.272 297.075 112.664 296.371 114.232C295.891 115.384 295.779 116.312 296.035 117.016C296.323 117.688 296.915 117.928 297.811 117.736C298.739 117.512 299.891 116.664 301.267 115.192ZM322.845 121.912C322.429 122.008 322.077 121.944 321.789 121.72C321.533 121.528 321.341 121.24 321.213 120.856C320.957 120.12 320.765 119.32 320.637 118.456C320.541 117.56 320.525 116.776 320.589 116.104L320.685 115.096L318.813 116.584C317.725 117.544 316.669 118.232 315.645 118.648C314.653 119.064 313.773 119.272 313.005 119.272C312.653 119.208 312.301 119.08 311.949 118.888C311.597 118.696 311.277 118.456 310.989 118.168C310.733 117.88 310.525 117.576 310.365 117.256C310.173 116.808 310.109 116.2 310.173 115.432C310.269 114.664 310.461 113.832 310.749 112.936C311.069 112.008 311.453 111.112 311.901 110.248C312.381 109.352 312.925 108.568 313.533 107.896C314.589 106.296 315.725 105.32 316.941 104.968C318.157 104.616 319.357 104.792 320.541 105.496C321.373 105.848 321.885 106.008 322.077 105.976C322.301 105.944 322.493 105.576 322.653 104.872C322.781 104.36 322.909 103.848 323.037 103.336C323.165 102.792 323.373 102.072 323.661 101.176C324.461 98.744 325.149 96.84 325.725 95.464C326.333 94.088 326.877 92.888 327.357 91.864C327.709 91.128 327.997 90.68 328.221 90.52C328.477 90.328 328.733 90.248 328.989 90.28C329.341 90.28 329.661 90.408 329.949 90.664C330.237 90.92 330.461 91.272 330.621 91.72C330.749 92.008 330.797 92.264 330.765 92.488C330.765 92.68 330.669 92.952 330.477 93.304C330.061 94.072 329.565 95.096 328.989 96.376C328.445 97.624 327.885 99 327.309 100.504C326.765 102.008 326.253 103.496 325.773 104.968C325.293 106.44 324.893 107.736 324.573 108.856C324.381 109.56 324.205 110.456 324.045 111.544C323.917 112.632 323.805 113.752 323.709 114.904C323.613 116.024 323.549 117.032 323.517 117.928C323.517 118.792 323.549 119.352 323.613 119.608C323.805 120.248 323.885 120.728 323.853 121.048C323.853 121.368 323.773 121.576 323.613 121.672C323.453 121.8 323.197 121.88 322.845 121.912ZM314.733 116.584C315.181 116.488 315.613 116.312 316.029 116.056C316.477 115.8 316.941 115.496 317.421 115.144C318.381 114.408 319.213 113.736 319.917 113.128C320.621 112.52 321.085 111.592 321.309 110.344C321.373 109.736 321.309 109.256 321.117 108.904C320.957 108.52 320.685 108.168 320.301 107.848C319.917 107.592 319.389 107.496 318.717 107.56C318.077 107.592 317.405 107.928 316.701 108.568C315.933 109.272 315.181 110.216 314.445 111.4C313.741 112.584 313.213 114.04 312.861 115.768C312.797 116.088 312.893 116.344 313.149 116.536C313.405 116.728 313.933 116.744 314.733 116.584ZM333.721 121.144C332.313 121.144 331.161 120.616 330.265 119.56C329.369 118.472 328.937 117.128 328.969 115.528C329.033 114.376 329.257 113.144 329.641 111.832C330.057 110.488 330.601 109.208 331.273 107.992C331.945 106.744 332.681 105.656 333.481 104.728C334.281 103.8 335.113 103.144 335.977 102.76C336.297 102.6 336.633 102.472 336.984 102.376C337.369 102.28 337.753 102.232 338.137 102.232C338.489 102.232 338.857 102.296 339.241 102.424C339.625 102.52 339.945 102.632 340.201 102.76C340.745 102.984 341.161 103.256 341.449 103.576C341.737 103.896 341.993 104.392 342.217 105.064C342.313 105.672 342.361 106.104 342.361 106.36C342.361 106.616 342.281 107 342.121 107.512C341.737 108.664 341.241 109.656 340.633 110.488C340.025 111.32 339.209 112.024 338.185 112.6C337.929 112.76 337.625 112.888 337.273 112.984C336.953 113.048 336.617 113.08 336.265 113.08C335.625 113.08 335.001 112.968 334.393 112.744C333.817 112.488 333.353 112.12 333.001 111.64L332.665 111.256L332.521 111.64C332.201 112.504 331.945 113.304 331.753 114.04C331.593 114.776 331.513 115.448 331.513 116.056C331.513 116.44 331.545 116.808 331.609 117.16C331.705 117.512 331.833 117.816 331.993 118.072C332.121 118.264 332.329 118.408 332.617 118.504C332.937 118.568 333.273 118.6 333.625 118.6C333.849 118.6 334.073 118.6 334.297 118.6C334.553 118.568 334.793 118.504 335.017 118.408C335.561 118.216 335.993 118.008 336.312 117.784C336.665 117.56 337.017 117.32 337.369 117.064L337.561 116.968H337.513C337.897 116.776 338.233 116.584 338.521 116.392C338.841 116.2 339.001 116.104 339.001 116.104C339.129 116.104 339.257 116.024 339.385 115.864C339.641 115.736 339.961 115.784 340.345 116.008C340.761 116.232 340.969 116.52 340.969 116.872C340.937 117.032 340.793 117.288 340.537 117.64C340.281 117.96 339.993 118.264 339.673 118.552C339.385 118.84 339.145 119 338.953 119.032C338.921 119.064 338.809 119.128 338.617 119.224C338.425 119.288 338.297 119.352 338.233 119.416H338.281C337.993 119.8 337.705 119.992 337.417 119.992H337.033C336.905 120.216 336.489 120.472 335.785 120.76C335.081 121.016 334.393 121.144 333.721 121.144ZM335.881 110.584C336.457 110.584 336.953 110.424 337.369 110.104C337.817 109.752 338.201 109.368 338.521 108.952C339.161 108.088 339.529 107.256 339.625 106.456C339.753 105.624 339.657 105.048 339.337 104.728C339.145 104.632 338.969 104.584 338.809 104.584C338.681 104.552 338.409 104.6 337.993 104.728C337.705 104.792 337.305 105.032 336.793 105.448C336.281 105.864 335.769 106.328 335.257 106.84C334.777 107.352 334.409 107.784 334.153 108.136L333.529 109.144C333.785 109.048 334.025 109 334.249 109C334.505 108.968 334.649 108.984 334.681 109.048C334.681 109.336 334.729 109.608 334.825 109.864C334.953 110.088 335.097 110.264 335.257 110.392C335.449 110.52 335.657 110.584 335.881 110.584ZM345.49 118.744C345.17 118.552 344.93 118.36 344.77 118.168C344.61 117.976 344.53 117.704 344.53 117.352C344.53 116.872 344.594 116.376 344.722 115.864C344.85 115.32 344.978 114.792 345.106 114.28C345.17 113.704 345.25 113.128 345.346 112.552C345.474 111.944 345.698 111.384 346.018 110.872C346.37 109.656 346.738 108.456 347.122 107.272C347.506 106.056 347.842 104.808 348.13 103.528C348.546 102.344 348.914 101.304 349.234 100.408C349.586 99.48 350.018 98.312 350.53 96.904C350.818 96.104 351.058 95.256 351.25 94.36C351.474 93.432 351.81 92.6 352.258 91.864C352.45 91.576 352.594 91.336 352.69 91.144C352.818 90.92 352.946 90.712 353.074 90.52C353.106 90.392 353.202 90.312 353.362 90.28C353.554 90.248 353.762 90.264 353.986 90.328C354.21 90.392 354.386 90.504 354.514 90.664C354.61 90.632 354.722 90.728 354.85 90.952C355.01 91.144 355.154 91.368 355.282 91.624C355.41 91.88 355.458 92.104 355.426 92.296C355.426 92.424 355.394 92.6 355.33 92.824C355.298 93.048 355.218 93.256 355.09 93.448C354.962 93.576 354.834 93.768 354.706 94.024C354.61 94.248 354.45 94.568 354.226 94.984C354.098 95.4 353.986 95.832 353.89 96.28C353.794 96.696 353.666 97.08 353.506 97.432C353.378 97.816 353.218 98.184 353.026 98.536C352.866 98.888 352.754 99.176 352.69 99.4C352.466 100.136 352.194 100.856 351.874 101.56C351.586 102.264 351.33 103.016 351.106 103.816C350.882 104.584 350.658 105.384 350.434 106.216C350.21 107.016 349.89 107.784 349.474 108.52C349.25 108.872 349.09 109.32 348.994 109.864C348.898 110.408 348.802 110.952 348.706 111.496C348.514 112.072 348.338 112.616 348.178 113.128C348.05 113.608 347.986 113.912 347.986 114.04C347.794 114.744 347.65 115.448 347.554 116.152C347.49 116.824 347.33 117.416 347.074 117.928C347.042 118.248 346.978 118.504 346.882 118.696C346.786 118.888 346.626 119 346.402 119.032C346.178 119.032 345.874 118.936 345.49 118.744ZM357.247 120.328C355.647 120.328 354.479 119.752 353.743 118.6C353.519 118.28 353.407 117.96 353.407 117.64C353.439 117.288 353.535 117.048 353.695 116.92C353.887 116.792 354.111 116.904 354.367 117.256C354.815 117.512 355.455 117.64 356.287 117.64C356.703 117.64 357.135 117.608 357.583 117.544C358.031 117.448 358.479 117.32 358.927 117.16C359.407 116.936 359.727 116.744 359.887 116.584C360.047 116.392 360.015 116.232 359.791 116.104H359.839C359.007 115.88 358.159 115.528 357.295 115.048C356.463 114.536 355.743 113.992 355.135 113.416C354.527 112.808 354.175 112.264 354.079 111.784C353.823 110.792 353.887 109.784 354.271 108.76C354.655 107.704 355.199 106.776 355.903 105.976C356.159 105.816 356.479 105.624 356.863 105.4C357.247 105.144 357.551 105 357.775 104.968V105.016C358.383 104.376 359.119 103.864 359.983 103.48C360.879 103.096 361.823 102.744 362.815 102.424L363.535 102.328C363.919 102.264 364.239 102.232 364.495 102.232C364.463 102.232 364.527 102.264 364.687 102.328C364.847 102.36 364.991 102.392 365.119 102.424C365.311 102.52 365.471 102.568 365.599 102.568C366.015 102.632 366.399 102.824 366.751 103.144C367.103 103.464 367.375 103.848 367.567 104.296C367.791 104.712 367.871 105.112 367.807 105.496C367.743 106.104 367.551 106.648 367.231 107.128C366.943 107.608 366.591 107.88 366.175 107.944C366.239 107.912 366.191 107.864 366.031 107.8C365.903 107.704 365.759 107.608 365.599 107.512L365.455 107.608C365.455 107.608 365.439 107.576 365.407 107.512C365.407 107.416 365.375 107.304 365.311 107.176C365.215 106.984 365.167 106.776 365.167 106.552C365.167 106.296 365.183 106.024 365.215 105.736C365.279 105.384 365.279 105.176 365.215 105.112C365.183 105.048 364.975 105 364.591 104.968C364.143 104.872 363.487 104.952 362.623 105.208C361.791 105.464 361.087 105.816 360.511 106.264C359.807 106.712 359.215 107.144 358.735 107.56C358.255 107.944 357.871 108.328 357.583 108.712C357.295 109.064 357.039 109.48 356.815 109.96C356.655 110.184 356.511 110.408 356.383 110.632C356.287 110.824 356.239 111 356.239 111.16C356.239 111.512 356.495 111.88 357.007 112.264C357.551 112.616 358.351 113.032 359.407 113.512C360.239 113.864 360.943 114.248 361.519 114.664C362.095 115.08 362.495 115.56 362.719 116.104C362.783 116.232 362.799 116.392 362.767 116.584C362.767 116.744 362.735 116.856 362.671 116.92C362.735 116.984 362.767 117.032 362.767 117.064V117.016C363.023 117.4 363.023 117.8 362.767 118.216C362.543 118.632 362.143 119 361.567 119.32C361.023 119.608 360.351 119.832 359.551 119.992H359.599C359.183 120.12 358.767 120.216 358.351 120.28C357.967 120.312 357.599 120.328 357.247 120.328Z" fill="#A4AAB9"/>
<path d="M145.5 38.5C161.833 20.8333 186.7 2.59998 155.5 71" stroke="#A4AAB9"/>
<path d="M142 140C134 162 129.1 200.2 173.5 177C217.9 153.8 237.833 132.833 245.5 127" stroke="#A4AAB9"/>
<path d="M373 124C374.167 144.5 390.6 168.9 447 102.5C503.4 36.1 372.5 276.167 300 404.5" stroke="#A4AAB9"/>
<path d="M220.661 548C195.177 598.148 210.967 673.648 478 574.458" stroke="#A4AAB9"/>
<path d="M1220.5 409C1283.83 366.833 1372.5 344.5 1220.5 592.5" stroke="#A4AAB9"/>
</svg>
