<svg width="109" height="41" viewBox="0 0 109 41" fill="none" xmlns="http://www.w3.org/2000/svg">
<path d="M58.634 12.4C58.954 12.416 59.178 12.584 59.306 12.904C59.45 13.224 59.482 13.632 59.402 14.128C59.322 14.608 59.09 15.12 58.706 15.664C58.338 16.032 58.13 16.344 58.082 16.6C57.97 16.744 57.794 16.952 57.554 17.224C57.33 17.48 57.082 17.76 56.81 18.064C56.554 18.352 56.322 18.608 56.114 18.832C55.922 19.056 55.794 19.192 55.73 19.24C55.506 19.432 55.25 19.656 54.962 19.912C54.69 20.168 54.442 20.408 54.218 20.632C54.01 20.84 53.874 20.984 53.81 21.064C53.698 21.176 53.594 21.296 53.498 21.424C53.402 21.536 53.314 21.608 53.234 21.64C53.218 21.704 53.17 21.784 53.09 21.88C53.01 21.96 52.954 22.04 52.922 22.12C52.89 22.136 52.786 22.224 52.61 22.384C52.434 22.544 52.234 22.728 52.01 22.936C51.802 23.128 51.61 23.304 51.434 23.464C51.274 23.624 51.186 23.72 51.17 23.752C50.994 23.912 50.722 24.192 50.354 24.592C49.986 24.976 49.578 25.408 49.13 25.888C48.682 26.368 48.25 26.84 47.834 27.304C47.418 27.752 47.066 28.136 46.778 28.456C46.506 28.792 46.354 29 46.322 29.08C46.258 29.208 46.154 29.288 46.01 29.32C45.882 29.368 45.754 29.376 45.626 29.344C45.562 29.376 45.418 29.384 45.194 29.368C44.97 29.352 44.842 29.336 44.81 29.32C44.81 29.32 44.794 29.28 44.762 29.2C44.73 29.12 44.698 28.992 44.666 28.816C44.57 28.656 44.562 28.4 44.642 28.048C44.738 27.712 44.818 27.456 44.882 27.28C44.994 27.072 45.106 26.896 45.218 26.752C45.33 26.608 45.522 26.416 45.794 26.176C46.066 25.92 46.482 25.528 47.042 25C47.298 24.744 47.554 24.504 47.81 24.28C48.082 24.04 48.226 23.896 48.242 23.848C48.258 23.784 48.322 23.696 48.434 23.584C48.546 23.472 48.658 23.336 48.77 23.176C48.882 23.096 49.066 22.936 49.322 22.696C49.594 22.44 49.89 22.16 50.21 21.856C50.53 21.536 50.842 21.224 51.146 20.92C51.466 20.616 51.73 20.368 51.938 20.176C52.034 20.048 52.146 19.92 52.274 19.792C52.418 19.648 52.57 19.48 52.73 19.288C52.746 19.256 52.85 19.144 53.042 18.952C53.25 18.744 53.49 18.504 53.762 18.232C54.034 17.944 54.29 17.672 54.53 17.416C54.786 17.144 54.978 16.936 55.106 16.792C55.746 16.04 56.322 15.312 56.834 14.608C57.362 13.904 57.73 13.328 57.938 12.88C58.098 12.544 58.218 12.384 58.298 12.4C58.394 12.416 58.506 12.416 58.634 12.4ZM55.25 28.744C54.946 28.712 54.594 28.544 54.194 28.24C53.81 27.936 53.434 27.456 53.066 26.8C52.474 25.984 51.954 25 51.506 23.848C51.058 22.68 50.746 21.424 50.57 20.08C50.49 19.52 50.402 19.04 50.306 18.64C50.21 18.224 50.146 18 50.114 17.968C50.098 17.904 50.106 17.864 50.138 17.848C50.186 17.816 50.21 17.8 50.21 17.8C50.258 17.752 50.266 17.704 50.234 17.656C50.202 17.592 50.17 17.52 50.138 17.44C50.138 17.44 50.098 17.256 50.018 16.888C49.938 16.52 49.874 16.064 49.826 15.52C49.762 14.944 49.706 14.448 49.658 14.032C49.626 13.6 49.594 13.32 49.562 13.192C49.514 13.16 49.49 13.112 49.49 13.048C49.49 12.984 49.49 12.952 49.49 12.952C49.522 12.856 49.61 12.744 49.754 12.616C49.914 12.472 50.018 12.376 50.066 12.328C50.306 12.152 50.57 12.104 50.858 12.184C51.146 12.248 51.394 12.416 51.602 12.688C51.81 12.944 51.914 13.272 51.914 13.672C51.914 14.088 51.962 14.344 52.058 14.44C52.042 14.472 52.034 14.592 52.034 14.8C52.05 15.008 52.066 15.248 52.082 15.52C52.114 15.776 52.146 16.016 52.178 16.24C52.21 16.464 52.234 16.616 52.25 16.696C52.186 16.888 52.186 17.024 52.25 17.104C52.266 17.232 52.29 17.408 52.322 17.632C52.354 17.84 52.362 17.984 52.346 18.064C52.33 18.144 52.346 18.288 52.394 18.496C52.458 18.688 52.514 18.888 52.562 19.096L53.186 21.256C53.314 21.768 53.434 22.224 53.546 22.624C53.658 23.008 53.794 23.392 53.954 23.776C54.114 24.144 54.306 24.56 54.53 25.024C54.706 25.408 54.914 25.768 55.154 26.104C55.394 26.424 55.61 26.64 55.802 26.752C55.834 26.784 55.914 26.808 56.042 26.824C56.186 26.824 56.274 26.8 56.306 26.752C56.482 26.704 56.602 26.76 56.666 26.92C56.73 27.08 56.762 27.272 56.762 27.496C56.778 27.704 56.786 27.888 56.786 28.048C56.818 28.16 56.754 28.272 56.594 28.384C56.434 28.512 56.226 28.608 55.97 28.672C55.73 28.752 55.49 28.776 55.25 28.744ZM57.7023 33.592C57.6383 33.592 57.5423 33.592 57.4143 33.592C57.3023 33.608 57.2063 33.544 57.1263 33.4C57.0623 33.32 56.9663 33.16 56.8383 32.92C56.7103 32.696 56.6863 32.376 56.7663 31.96C56.8463 31.688 56.9103 31.416 56.9583 31.144C57.0063 30.888 57.0303 30.696 57.0303 30.568C57.0303 30.504 57.0463 30.376 57.0783 30.184C57.1263 30.008 57.1503 29.88 57.1503 29.8C57.2303 29.672 57.2943 29.496 57.3423 29.272C57.3903 29.048 57.4143 28.848 57.4143 28.672C57.4143 28.48 57.5103 28.304 57.7023 28.144C57.7023 28.016 57.7263 27.856 57.7743 27.664C57.8383 27.472 57.8703 27.344 57.8703 27.28C57.9183 27.056 58.0223 26.664 58.1823 26.104C58.3583 25.528 58.5663 24.88 58.8063 24.16C59.0623 23.44 59.3103 22.736 59.5503 22.048C59.7903 21.36 60.0063 20.776 60.1983 20.296C60.3903 19.848 60.5503 19.432 60.6783 19.048C60.8063 18.664 60.8703 18.392 60.8703 18.232C60.8703 18.168 60.8863 18.12 60.9183 18.088C60.9503 18.04 61.0223 17.952 61.1343 17.824C61.2943 17.664 61.5023 17.608 61.7583 17.656C62.0303 17.688 62.2543 17.768 62.4303 17.896C62.5583 18.104 62.6463 18.296 62.6943 18.472C62.7583 18.632 62.7583 18.888 62.6943 19.24C62.6943 19.48 62.6383 19.704 62.5263 19.912C62.4143 20.104 62.3103 20.264 62.2143 20.392C62.1343 20.504 62.1103 20.552 62.1423 20.536C62.8463 20.104 63.4783 19.872 64.0383 19.84C64.6143 19.792 65.0943 19.888 65.4783 20.128C65.8783 20.352 66.1823 20.664 66.3903 21.064C66.5983 21.464 66.7023 21.896 66.7023 22.36C66.7023 22.552 66.6383 22.808 66.5103 23.128C66.3823 23.448 66.2383 23.752 66.0783 24.04C65.9183 24.312 65.7903 24.496 65.6943 24.592C65.6303 24.592 65.5663 24.648 65.5023 24.76C65.4383 24.856 65.3743 24.968 65.3103 25.096C65.1823 25.256 64.9663 25.44 64.6623 25.648C64.3743 25.84 64.0783 26 63.7743 26.128C63.4703 26.24 63.2543 26.272 63.1263 26.224C63.1263 26.224 63.1023 26.24 63.0543 26.272C63.0223 26.304 63.0063 26.36 63.0063 26.44C63.0063 26.472 62.8943 26.536 62.6703 26.632C62.4463 26.728 62.1823 26.816 61.8783 26.896C61.5743 26.976 61.2943 27.016 61.0383 27.016C60.7023 27.016 60.4623 26.952 60.3183 26.824C60.2863 26.856 60.2463 26.904 60.1983 26.968C60.1663 27.032 60.1503 27.088 60.1503 27.136C60.1503 27.232 60.1103 27.384 60.0303 27.592C59.9663 27.8 59.8863 27.984 59.7903 28.144C59.6943 28.32 59.6063 28.408 59.5263 28.408C59.5263 28.408 59.5103 28.432 59.4783 28.48C59.4463 28.528 59.4623 28.592 59.5263 28.672C59.5263 28.672 59.5183 28.76 59.5023 28.936C59.5023 29.128 59.4623 29.288 59.3823 29.416C59.3823 29.544 59.3583 29.736 59.3103 29.992C59.2623 30.248 59.2063 30.44 59.1423 30.568C59.1423 30.76 59.1103 30.944 59.0463 31.12C58.9983 31.312 58.9423 31.408 58.8783 31.408C58.8143 31.424 58.7743 31.52 58.7583 31.696C58.7423 31.888 58.7343 32.024 58.7343 32.104C58.7183 32.504 58.5903 32.848 58.3503 33.136C58.1103 33.44 57.8943 33.592 57.7023 33.592ZM60.7743 25.192C60.9023 25.192 61.1343 25.136 61.4703 25.024C61.8063 24.912 62.1583 24.776 62.5263 24.616C62.8943 24.44 63.1823 24.264 63.3903 24.088C63.8063 23.72 64.1263 23.36 64.3503 23.008C64.5903 22.656 64.5743 22.264 64.3023 21.832C64.1743 21.608 63.9663 21.52 63.6783 21.568C63.4063 21.6 63.1023 21.728 62.7663 21.952C62.4303 22.176 62.0863 22.456 61.7343 22.792C61.5423 23 61.3663 23.24 61.2063 23.512C61.0463 23.784 60.9103 24.048 60.7983 24.304C60.7023 24.56 60.6463 24.776 60.6303 24.952C60.6143 25.112 60.6623 25.192 60.7743 25.192ZM68.3326 27.424C68.1726 27.328 67.9966 27.192 67.8046 27.016C67.6126 26.824 67.5166 26.64 67.5166 26.464C67.5166 26.224 67.5486 25.928 67.6126 25.576C67.6766 25.208 67.7406 24.896 67.8046 24.64C67.8366 24.352 67.8766 24.064 67.9246 23.776C67.9886 23.472 68.1006 23.192 68.2606 22.936C68.4366 22.328 68.6206 21.728 68.8126 21.136C69.0046 20.528 69.1726 19.904 69.3166 19.264C69.5246 18.672 69.7086 18.152 69.8686 17.704C70.0446 17.24 70.2606 16.656 70.5166 15.952C70.6606 15.552 70.7806 15.128 70.8766 14.68C70.9886 14.216 71.1566 13.8 71.3806 13.432C71.4766 13.288 71.5486 13.168 71.5966 13.072C71.6606 12.96 71.7246 12.856 71.7886 12.76C71.8046 12.696 71.8846 12.64 72.0286 12.592C72.1886 12.544 72.3486 12.52 72.5086 12.52C72.6846 12.504 72.8046 12.536 72.8686 12.616C72.9166 12.6 72.9966 12.664 73.1086 12.808C73.2206 12.936 73.3246 13.088 73.4206 13.264C73.5326 13.424 73.5806 13.552 73.5646 13.648C73.5646 13.712 73.5486 13.8 73.5166 13.912C73.5006 14.024 73.4606 14.128 73.3966 14.224C73.3326 14.288 73.2686 14.384 73.2046 14.512C73.1566 14.624 73.0766 14.784 72.9646 14.992C72.9006 15.2 72.8446 15.416 72.7966 15.64C72.7486 15.848 72.6846 16.04 72.6046 16.216C72.5406 16.408 72.4606 16.592 72.3646 16.768C72.2846 16.944 72.2286 17.088 72.1966 17.2C72.0846 17.568 71.9486 17.928 71.7886 18.28C71.6446 18.632 71.5166 19.008 71.4046 19.408C71.2926 19.792 71.1806 20.192 71.0686 20.608C70.9566 21.008 70.7966 21.392 70.5886 21.76C70.4766 21.936 70.3966 22.16 70.3486 22.432C70.3006 22.704 70.2526 22.976 70.2046 23.248C70.1086 23.536 70.0206 23.808 69.9406 24.064C69.8766 24.304 69.8446 24.456 69.8446 24.52C69.7486 24.872 69.6766 25.224 69.6286 25.576C69.5966 25.912 69.5166 26.208 69.3886 26.464C69.3726 26.624 69.3166 26.8 69.2206 26.992C69.1246 27.184 68.9966 27.328 68.8366 27.424C68.6926 27.52 68.5246 27.52 68.3326 27.424ZM73.6062 27.832C73.3982 27.832 73.2302 27.792 73.1022 27.712C72.9902 27.632 72.8462 27.52 72.6702 27.376C72.3662 27.056 72.1182 26.712 71.9262 26.344C71.7502 25.976 71.6862 25.656 71.7342 25.384C71.7822 25.256 71.7982 25.136 71.7822 25.024C71.7822 24.896 71.7822 24.832 71.7822 24.832C71.7022 24.752 71.6782 24.704 71.7102 24.688C71.7422 24.656 71.7742 24.608 71.8062 24.544C71.9022 24.544 71.9342 24.456 71.9022 24.28C71.8702 24.152 71.9182 23.88 72.0462 23.464C72.1902 23.032 72.3822 22.624 72.6222 22.24C72.7182 22.08 72.8622 21.872 73.0542 21.616C73.2462 21.344 73.4542 21.08 73.6782 20.824C73.9182 20.552 74.1342 20.336 74.3262 20.176C74.7262 19.84 75.0942 19.568 75.4302 19.36C75.7822 19.152 76.1342 19.008 76.4862 18.928C76.8382 18.848 77.1982 18.808 77.5662 18.808C77.9502 18.808 78.2622 18.936 78.5022 19.192C78.8702 19.352 79.1262 19.568 79.2702 19.84C79.4302 20.112 79.5342 20.464 79.5822 20.896C79.6302 21.376 79.5822 21.968 79.4382 22.672C79.2942 23.36 78.9022 24.16 78.2622 25.072C77.8622 25.648 77.4702 26.096 77.0862 26.416C76.7022 26.736 76.2782 27.032 75.8142 27.304C75.4782 27.528 75.1182 27.664 74.7342 27.712C74.3502 27.76 73.9742 27.8 73.6062 27.832ZM76.0542 24.904C76.4062 24.6 76.6542 24.264 76.7982 23.896C76.9582 23.528 77.1262 23.096 77.3022 22.6C77.3662 22.504 77.4062 22.344 77.4222 22.12C77.4542 21.896 77.4622 21.68 77.4462 21.472C77.4302 21.248 77.3742 21.12 77.2782 21.088C77.1342 20.976 76.9902 20.952 76.8462 21.016C76.7022 21.064 76.5182 21.168 76.2942 21.328C75.8142 21.728 75.3662 22.192 74.9502 22.72C74.5502 23.232 74.2702 23.864 74.1102 24.616C74.0622 25.016 74.1022 25.32 74.2302 25.528C74.3742 25.72 74.5982 25.776 74.9022 25.696C75.2222 25.6 75.6062 25.336 76.0542 24.904ZM81.3895 27.64C81.2775 27.64 81.1255 27.56 80.9335 27.4C80.7575 27.24 80.6535 27.096 80.6215 26.968C80.5735 26.84 80.5735 26.656 80.6215 26.416C80.6855 26.16 80.7735 25.864 80.8855 25.528C81.0135 25 81.1015 24.616 81.1495 24.376C81.1975 24.136 81.2455 23.928 81.2935 23.752C81.3415 23.576 81.4055 23.32 81.4855 22.984C81.5815 22.776 81.6535 22.576 81.7015 22.384C81.7655 22.176 81.8295 21.968 81.8935 21.76C81.9735 21.552 82.0615 21.344 82.1575 21.136C82.2695 20.72 82.4055 20.328 82.5655 19.96C82.7415 19.576 82.9095 19.256 83.0695 19C83.1015 18.952 83.1735 18.864 83.2855 18.736C83.3975 18.608 83.4855 18.544 83.5495 18.544C83.6775 18.416 83.8535 18.376 84.0775 18.424C84.3015 18.456 84.4935 18.536 84.6535 18.664C84.8455 18.872 84.9495 19.12 84.9655 19.408C84.9975 19.68 84.8855 20.064 84.6295 20.56C84.4375 21.056 84.2535 21.448 84.0775 21.736C83.9175 22.008 83.7575 22.328 83.5975 22.696C83.7735 22.44 83.9895 22.176 84.2455 21.904C84.5015 21.632 84.7015 21.416 84.8455 21.256C85.0535 21.032 85.2455 20.856 85.4215 20.728C85.6135 20.584 85.8695 20.408 86.1895 20.2C86.4615 20.008 86.7335 19.832 87.0055 19.672C87.2935 19.512 87.6375 19.464 88.0375 19.528C88.1975 19.512 88.3655 19.592 88.5415 19.768C88.7335 19.944 88.8775 20.176 88.9735 20.464C89.0855 20.736 89.0855 21.032 88.9735 21.352C88.6055 21.272 88.2775 21.288 87.9895 21.4C87.7015 21.496 87.4535 21.616 87.2455 21.76C87.0535 21.904 86.9015 22.016 86.7895 22.096C86.6295 22.192 86.4455 22.32 86.2375 22.48C86.0295 22.624 85.8055 22.792 85.5655 22.984C85.3255 23.16 85.0695 23.36 84.7975 23.584C84.4135 23.904 84.1255 24.184 83.9335 24.424C83.7415 24.664 83.5895 24.92 83.4775 25.192C83.3815 25.432 83.2615 25.72 83.1175 26.056C82.9735 26.392 82.8375 26.696 82.7095 26.968C82.5815 27.224 82.4775 27.384 82.3975 27.448C82.3175 27.608 82.1495 27.696 81.8935 27.712C81.6535 27.728 81.4855 27.704 81.3895 27.64ZM91.742 28.432C90.862 28.432 90.182 28.176 89.702 27.664C89.238 27.152 89.006 26.368 89.006 25.312C89.006 24.736 89.11 24.104 89.318 23.416C89.542 22.728 89.83 22.056 90.182 21.4C90.55 20.744 90.95 20.176 91.382 19.696C91.814 19.2 92.246 18.856 92.678 18.664C92.838 18.584 93.006 18.528 93.182 18.496C93.374 18.448 93.558 18.424 93.734 18.424C93.926 18.424 94.134 18.44 94.358 18.472C94.598 18.488 94.822 18.536 95.03 18.616C95.398 18.728 95.718 18.944 95.99 19.264C96.278 19.584 96.422 20.048 96.422 20.656C96.422 20.816 96.406 20.992 96.374 21.184C96.342 21.36 96.286 21.536 96.206 21.712C95.998 22.24 95.678 22.744 95.246 23.224C94.83 23.704 94.39 24.04 93.926 24.232C93.798 24.296 93.67 24.344 93.542 24.376C93.43 24.392 93.31 24.4 93.182 24.4C92.846 24.4 92.542 24.352 92.27 24.256C92.014 24.16 91.774 24.032 91.55 23.872L91.358 23.704L91.238 23.944C91.126 24.248 91.046 24.504 90.998 24.712C90.966 24.92 90.95 25.072 90.95 25.168C90.95 25.36 90.958 25.56 90.974 25.768C90.99 25.96 91.038 26.12 91.118 26.248C91.182 26.328 91.262 26.392 91.358 26.44C91.47 26.488 91.606 26.512 91.766 26.512C91.862 26.512 91.95 26.512 92.03 26.512C92.126 26.496 92.206 26.48 92.27 26.464C92.558 26.4 92.79 26.296 92.966 26.152C93.158 25.992 93.358 25.856 93.566 25.744L93.662 25.696L93.638 25.624C93.91 25.48 94.094 25.392 94.19 25.36C94.286 25.312 94.358 25.272 94.406 25.24C94.47 25.176 94.542 25.144 94.622 25.144C94.846 25.112 95.062 25.176 95.27 25.336C95.494 25.48 95.606 25.664 95.606 25.888C95.606 25.984 95.534 26.136 95.39 26.344C95.262 26.552 95.094 26.76 94.886 26.968C94.694 27.16 94.494 27.312 94.286 27.424C94.238 27.44 94.19 27.464 94.142 27.496C94.094 27.512 94.046 27.536 93.998 27.568H94.022C93.878 27.76 93.734 27.856 93.59 27.856H93.398C93.334 27.968 93.126 28.088 92.774 28.216C92.422 28.36 92.078 28.432 91.742 28.432ZM92.99 22.648C93.134 22.648 93.262 22.624 93.374 22.576C93.502 22.528 93.622 22.472 93.734 22.408C94.118 22.136 94.366 21.784 94.478 21.352C94.59 20.92 94.55 20.592 94.358 20.368C94.326 20.32 94.286 20.288 94.238 20.272C94.19 20.24 94.134 20.224 94.07 20.224C93.894 20.224 93.694 20.28 93.47 20.392C93.262 20.504 93.054 20.664 92.846 20.872C92.638 21.08 92.446 21.328 92.27 21.616L91.958 22.12C91.99 22.104 92.014 22.096 92.03 22.096C92.062 22.08 92.086 22.072 92.102 22.072C92.246 22.072 92.342 22.12 92.39 22.216C92.438 22.312 92.494 22.408 92.558 22.504C92.638 22.6 92.782 22.648 92.99 22.648ZM97.7896 27.352C97.6456 27.24 97.4856 27.096 97.3096 26.92C97.1496 26.744 97.0936 26.496 97.1416 26.176C97.1896 25.728 97.2536 25.336 97.3336 25C97.4136 24.648 97.5096 24.248 97.6216 23.8C97.6536 23.608 97.7336 23.28 97.8616 22.816C98.0056 22.352 98.1736 21.848 98.3656 21.304C98.5576 20.76 98.7576 20.248 98.9656 19.768C99.1736 19.272 99.3576 18.904 99.5176 18.664C99.6936 18.504 99.9496 18.424 100.286 18.424C100.638 18.424 100.878 18.488 101.006 18.616C101.182 18.76 101.238 19.016 101.174 19.384C101.11 19.736 100.886 20.288 100.502 21.04C100.422 21.232 100.318 21.44 100.19 21.664C100.078 21.872 99.9976 22.048 99.9496 22.192C99.9016 22.32 99.9176 22.376 99.9976 22.36C100.094 22.184 100.27 21.984 100.526 21.76C100.782 21.52 101.054 21.288 101.342 21.064C101.63 20.84 101.902 20.64 102.158 20.464C102.414 20.288 102.59 20.176 102.686 20.128C102.814 20.048 102.958 19.984 103.118 19.936C103.294 19.872 103.414 19.824 103.478 19.792C103.846 19.616 104.246 19.552 104.678 19.6C105.126 19.632 105.398 19.768 105.494 20.008C105.51 20.136 105.558 20.232 105.638 20.296C105.734 20.36 105.782 20.392 105.782 20.392C105.846 20.392 105.878 20.416 105.878 20.464C105.894 20.512 105.902 20.536 105.902 20.536C105.902 20.648 105.79 20.808 105.566 21.016C105.358 21.224 105.126 21.336 104.87 21.352C104.662 21.368 104.478 21.408 104.318 21.472C104.158 21.536 103.966 21.616 103.742 21.712C103.134 22.064 102.582 22.376 102.086 22.648C101.606 22.92 101.11 23.336 100.598 23.896C100.486 24.024 100.366 24.144 100.238 24.256C100.11 24.368 99.9816 24.528 99.8536 24.736C99.7736 24.816 99.6936 24.992 99.6136 25.264C99.5336 25.536 99.4616 25.8 99.3976 26.056C99.3496 26.296 99.3256 26.44 99.3256 26.488C99.3256 26.488 99.3016 26.568 99.2536 26.728C99.2056 26.872 99.1256 27.016 99.0136 27.16C98.8216 27.416 98.6296 27.576 98.4376 27.64C98.2616 27.704 98.0456 27.608 97.7896 27.352Z" fill="#F0F4FF"/>
<rect y="1" width="40" height="40" fill="#F0F4FF"/>
<path d="M20.6914 30L19.4492 25.9219H13.2031L11.9609 30H8.04688L14.0938 12.7969H18.5352L24.6055 30H20.6914ZM18.582 22.875L17.3398 18.8906C17.2617 18.625 17.1562 18.2852 17.0234 17.8711C16.8984 17.4492 16.7695 17.0234 16.6367 16.5938C16.5117 16.1562 16.4102 15.7773 16.332 15.457C16.2539 15.7773 16.1445 16.1758 16.0039 16.6523C15.8711 17.1211 15.7422 17.5664 15.6172 17.9883C15.4922 18.4102 15.4023 18.7109 15.3477 18.8906L14.1172 22.875H18.582ZM30.0664 16.8984V30H26.4922V16.8984H30.0664ZM28.2852 11.7656C28.8164 11.7656 29.2734 11.8906 29.6562 12.1406C30.0391 12.3828 30.2305 12.8398 30.2305 13.5117C30.2305 14.1758 30.0391 14.6367 29.6562 14.8945C29.2734 15.1445 28.8164 15.2695 28.2852 15.2695C27.7461 15.2695 27.2852 15.1445 26.9023 14.8945C26.5273 14.6367 26.3398 14.1758 26.3398 13.5117C26.3398 12.8398 26.5273 12.3828 26.9023 12.1406C27.2852 11.8906 27.7461 11.7656 28.2852 11.7656Z" fill="black"/>
</svg>
